{"title":"IMAX.Mummies.Secrets.Of.The.Pharohs.2007.720p.BRRip.Xvid.AC3.DiV","uid":6909758,"size":1335315384,"categoryP":"video","categoryS":"hd___movies","magnet":"?xt=urn:btih:63bd4517aca586db893b5321dbab4846e6e83828&amp;dn=IMAX.Mummies.Secrets.Of.The.Pharohs.2007.720p.BRRip.Xvid.AC3.DiV&amp;tr=udp%3A%2F%2Ftracker.openbittorrent.com%3A80&amp;tr=udp%3A%2F%2Fopen.demonii.com%3A1337&amp;tr=udp%3A%2F%2Ftracker.coppersurfer.tk%3A6969&amp;tr=udp%3A%2F%2Fexodus.desync.com%3A6969","seeders":0,"leechers":1,"uploader":"TvTeam","files":4,"time":1324742189,"description":". \n &lt;a href=&quot;\nhttp://www.torrenting.com&quot; rel=&quot;nofollow&quot; target=&quot;_NEW&quot;&gt;\nhttp://www.torrenting.com&lt;/a&gt;          :     Once &amp; For all ;)\n\n\n               www . Torrenting . Com \n\n(((((((((((((= Enjoy No RAR releases =))))))))))))))))))))\n\n\n...................................NFO:....................................\n\n.                                                                \n @@@@@@@   @@@  @@@  @@@  @@@@@@@@  @@@@@@@   @@@@@@    @@@  @@@@@@@  @@@ @@@ \n @@@@@@@@  @@@  @@@  @@@  @@@@@@@@  @@@@@@@@  @@@@@@@   @@@  @@@@@@@  @@@ @@@ \n @@!  @@@  @@!  @@!  @@@  @@!       @@!  @@@  !@@       @@!    @@!    @@! !@@ \n !@!  @!@  !@!  !@!  @!@  !@!       !@!  @!@  !@!       !@!    !@!    !@! @!! \n @!@  !@!  !!@  @!@  !@!  @!!!:!    @!@!!@!   !!@@!!    !!@    @!!     !@!@!  \n !@!  !!!  !!!  !@!  !!!  !!!!!:    !!@!@!     !!@!!!   !!!    !!!      @!!!  \n !!:  !!!  !!:  :!:  !!:  !!:       !!: :!!        !:!  !!:    !!:      !!:   \n :!:  !:!  :!:   ::!!:!   :!:       :!:  !:!      !:!   :!:    :!:      :!:   \n :::: ::   ::    ::::     :: ::::   ::   :::  :::: ::    ::     ::       ::   \n :: :  :   :       :      : :: ::    :   : :  :: : :    :       :        :       \n\n\n   \nGeneral\n\nComplete name                    : IMAX.Mummies.Secrets.Of.The.Pharohs.2007.720p.BRRip.Xvid.AC3.DiVERSiTY\nFormat                           : AVI\nFormat/Info                      : Audio Video Interleave\nFile size                        : 1.24 GiB\nDuration                         : 38mn 41s\nOverall bit rate                 : 4 601 Kbps\nVideo-Source                     : 720p.BluRay.x264-PUZZLE   \nEncoded by                       : Hibees\n   &lt;a href=&quot;\nhttp://www.imdb.com/title/tt0922522/&quot; rel=&quot;nofollow&quot; target=&quot;_NEW&quot;&gt;\nhttp://www.imdb.com/title/tt0922522/&lt;/a&gt;\n\n\nVideo\n\nFormat                           : MPEG-4 Visual\nFormat profile                   : Streaming Video@L1\nFormat settings, BVOP            : Yes\nFormat settings, QPel            : No\nFormat settings, GMC             : No warppoints\nFormat settings, Matrix          : Default\nCodec ID                         : XVID\nCodec ID/Hint                    : XviD\nDuration                         : 38mn 41s\nBit rate                         : 4 145 Kbps\nWidth                            : 1 280 pixels\nHeight                           : 720 pixels\nDisplay aspect ratio             : 16/9\nFrame rate                       : 23.976 fps\nResolution                       : 24 bits\nColorimetry                      : 4:2:0\nScan type                        : Progressive\nBits/(Pixel*Frame)               : 0.188\nStream size                      : 1.12 GiB (90%)\nWriting library                  : XviD 1.2.1 (UTC 2008-12-04)\n\n\n\nAudio\n\nFormat                           : AC-3\nFormat/Info                      : Audio Coding 3\nCodec ID                         : 2000\nDuration                         : 38mn 41s\nBit rate mode                    : Constant\nBit rate                         : 448 Kbps\nChannel(s)                       : 6 channels\nChannel positions                : Front: L C R, Surround: L R, LFE\nSampling rate                    : 48.0 KHz\nStream size                      : 124 MiB (10%)\nAlignment                        : Aligned on interleaves\nInterleave, duration             : 64 ms (1.53 video frames)\nInterleave, preload duration     : 192 ms\nTitle                            : puzzle-imsotp-720 - [2] English\n\n\n   \nPlot:\n\nThe grail is not the gold, nor the books of ancient wisdom, but the \n3,000 year old DNA of the mummies, which may lead to a cure for malaria. \n\n\n\nGreets:\n\nTo Everyone who makes p2p possible...... Thanks.","torrent":{"xt":"urn:btih:63bd4517aca586db893b5321dbab4846e6e83828","amp;dn":"IMAX.Mummies.Secrets.Of.The.Pharohs.2007.720p.BRRip.Xvid.AC3.DiV","amp;tr":["udp%3A%2F%2Ftracker.openbittorrent.com%3A80","udp%3A%2F%2Fopen.demonii.com%3A1337","udp%3A%2F%2Ftracker.coppersurfer.tk%3A6969","udp%3A%2F%2Fexodus.desync.com%3A6969"],"infoHash":"63bd4517aca586db893b5321dbab4846e6e83828","infoHashBuffer":{"type":"Buffer","data":[99,189,69,23,172,165,134,219,137,59,83,33,219,171,72,70,230,232,56,40]},"announce":[],"urlList":[]}}